<?xml version="1.0" standalone="no"?>
<!DOCTYPE svg PUBLIC "-//W3C//DTD SVG 20010904//EN"
 "http://www.w3.org/TR/2001/REC-SVG-20010904/DTD/svg10.dtd">
<svg version="1.0" xmlns="http://www.w3.org/2000/svg"
 width="193.000000pt" height="193.000000pt" viewBox="0 0 193.000000 193.000000"
 preserveAspectRatio="xMidYMid meet">
<metadata>
Created by potrace 1.14, written by Peter Selinger 2001-2017
</metadata>
<g transform="translate(0.000000,193.000000) scale(0.100000,-0.100000)"
fill="#000000" stroke="none">
<path d="M860 1534 c-77 -130 -140 -240 -140 -245 0 -5 -4 -9 -10 -9 -5 0 -10
-4 -10 -9 0 -5 -25 -49 -55 -99 -30 -50 -61 -105 -70 -122 l-16 -30 113 0 113
1 74 132 c40 73 90 162 109 199 20 37 40 64 43 60 4 -4 24 -38 44 -77 21 -38
41 -74 45 -80 4 -5 21 -35 37 -65 16 -30 44 -80 61 -110 l31 -55 110 -3 c61
-1 111 0 111 3 0 8 -27 55 -174 304 -69 117 -126 216 -126 218 0 7 -141 223
-146 223 -2 0 -67 -106 -144 -236z"/>
<path d="M651 933 c18 -32 43 -75 56 -95 12 -21 23 -40 23 -43 0 -4 81 -146
100 -175 6 -8 13 -22 17 -30 4 -8 34 -62 67 -120 34 -58 67 -118 75 -133 8
-15 17 -27 20 -27 7 0 24 27 64 100 16 30 33 60 37 65 4 6 19 30 32 55 14 25
78 136 142 247 64 112 116 205 116 208 0 3 -176 5 -390 5 l-391 0 32 -57z"/>
<path d="M547 973 c-11 -18 -197 -340 -278 -480 l-88 -153 85 -1 c46 -1 96 -1
111 -2 25 -1 35 12 125 174 54 95 102 181 107 189 6 8 22 38 37 66 l27 51 -54
81 c-53 79 -63 90 -72 75z"/>
<path d="M1401 897 c-28 -47 -51 -89 -51 -95 0 -6 41 -84 91 -174 51 -90 107
-191 126 -225 19 -33 39 -63 46 -66 15 -5 198 1 204 7 3 3 -66 128 -152 278
-87 150 -166 289 -177 308 -11 19 -23 39 -28 43 -4 5 -31 -29 -59 -76z"/>
</g>
</svg>
