<svg width="745" height="266" viewBox="0 0 745 266" fill="none" xmlns="http://www.w3.org/2000/svg">
<g clip-path="url(#clip0_317_84)">
<path d="M84.5889 138.259L96.3697 155.53L69.3959 203.48L47.1241 202.98L84.5889 138.259Z" fill="white"/>
<path d="M84.5889 138.259L96.3697 155.53L69.3959 203.48L47.1241 202.98L84.5889 138.259Z" stroke="black"/>
<path d="M129.375 59.4001L140.347 76.2052L107.174 135.108L84.5175 135.096L129.375 59.4001Z" fill="white"/>
<path d="M129.375 59.4001L140.347 76.2052L107.174 135.108L84.5175 135.096L129.375 59.4001Z" stroke="black"/>
<path d="M139.656 75.1487L127.654 91.0649L152.165 135.157L174.613 134.787L139.656 75.1487Z" fill="white"/>
<path d="M139.656 75.1487L127.654 91.0649L152.165 135.157L174.613 134.787L139.656 75.1487Z" stroke="black"/>
<path d="M174.46 138.259L163.471 156.91L189.783 203.704L211.746 203.083L174.46 138.259Z" fill="white"/>
<path d="M174.46 138.259L163.471 156.91L189.783 203.704L211.746 203.083L174.46 138.259Z" stroke="black"/>
<path d="M130.085 206.856L90.9136 138.001L169.5 138.001L130.085 206.856Z" fill="white"/>
<path d="M130.085 206.856L90.9136 138.001L169.5 138.001L130.085 206.856Z" stroke="black"/>
<path d="M276.629 110.422L252.968 189.834L227.014 190.089L262.859 89.4895L279.313 89.3276L276.629 110.422ZM297.648 189.394L272.36 110.464L268.986 89.4292L285.647 89.2652L323.671 189.138L297.648 189.394ZM296.316 152.021L296.5 170.678L245.073 171.184L244.89 152.527L296.316 152.021ZM370.325 88.4319L371.312 188.669L347.147 188.907L346.161 88.6697L370.325 88.4319ZM400.479 88.1351L400.662 106.792L316.879 107.616L316.695 88.9597L400.479 88.1351ZM477.768 169.032L477.951 187.62L427.282 188.118L427.099 169.53L477.768 169.032ZM434.901 87.7963L435.887 188.034L411.723 188.271L410.737 88.0341L434.901 87.7963ZM531.215 107.917L507.554 187.328L481.6 187.584L517.445 86.984L533.899 86.822L531.215 107.917ZM552.234 186.889L526.947 107.959L523.572 86.9237L540.233 86.7597L578.258 186.633L552.234 186.889ZM550.903 149.516L551.086 168.172L499.66 168.679L499.476 150.022L550.903 149.516ZM636.995 159.409C636.98 157.849 636.736 156.451 636.265 155.216C635.794 153.936 634.933 152.751 633.683 151.662C632.433 150.572 630.632 149.488 628.28 148.41C625.974 147.285 622.933 146.122 619.158 144.919C614.737 143.494 610.475 141.884 606.373 140.088C602.269 138.246 598.599 136.102 595.362 133.655C592.124 131.163 589.548 128.251 587.634 124.919C585.718 121.541 584.739 117.603 584.694 113.105C584.652 108.791 585.578 104.903 587.471 101.442C589.365 97.9349 592.02 94.9482 595.439 92.4818C598.902 89.9691 602.969 88.0471 607.638 86.716C612.306 85.3389 617.417 84.6231 622.97 84.5684C630.314 84.4961 636.798 85.7175 642.422 88.2326C648.092 90.7013 652.534 94.2608 655.747 98.9111C659.005 103.515 660.665 108.984 660.728 115.317L636.701 115.554C636.676 113.03 636.126 110.809 635.052 108.892C634.023 106.974 632.471 105.474 630.395 104.393C628.318 103.312 625.72 102.787 622.599 102.818C619.57 102.847 617.027 103.331 614.971 104.27C612.914 105.208 611.366 106.462 610.326 108.033C609.285 109.558 608.774 111.239 608.792 113.075C608.807 114.589 609.233 115.962 610.072 117.193C610.956 118.378 612.183 119.49 613.754 120.53C615.371 121.57 617.308 122.561 619.567 123.503C621.871 124.444 624.45 125.36 627.305 126.249C632.646 127.895 637.392 129.753 641.543 131.824C645.74 133.848 649.274 136.177 652.146 138.811C655.063 141.399 657.273 144.361 658.774 147.697C660.322 151.032 661.116 154.811 661.158 159.034C661.202 163.531 660.369 167.533 658.66 171.038C656.95 174.544 654.478 177.528 651.243 179.993C648.008 182.412 644.125 184.263 639.593 185.547C635.062 186.831 629.996 187.5 624.397 187.555C619.256 187.606 614.179 187.013 609.163 185.778C604.193 184.495 599.676 182.52 595.61 179.852C591.544 177.138 588.274 173.659 585.799 169.414C583.37 165.124 582.127 160.018 582.068 154.097L606.302 153.859C606.331 156.796 606.745 159.271 607.545 161.283C608.345 163.294 609.509 164.912 611.035 166.137C612.562 167.315 614.429 168.169 616.638 168.698C618.846 169.181 621.372 169.409 624.218 169.381C627.293 169.35 629.767 168.89 631.64 167.999C633.513 167.063 634.878 165.856 635.736 164.379C636.593 162.856 637.013 161.199 636.995 159.409Z" fill="white"/>
</g>
<defs>
<clipPath id="clip0_317_84">
<rect width="745" height="266" fill="white"/>
</clipPath>
</defs>
</svg>
